<svg width="24" height="21" viewBox="0 0 24 21" fill="none" xmlns="http://www.w3.org/2000/svg">
<path fill-rule="evenodd" clip-rule="evenodd" d="M12.778 3.93681C16.915 3.81982 20.435 6.94467 20.938 10.9995H21.481C21.5811 10.9995 21.6788 10.9695 21.7617 10.9134C21.8445 10.8573 21.9086 10.7776 21.9456 10.6846C21.9827 10.5917 21.991 10.4898 21.9695 10.3921C21.948 10.2943 21.8976 10.2053 21.825 10.1365L21.71 10.0275C21.5225 9.84402 21.4146 9.59417 21.4096 9.33185C21.4046 9.06953 21.5029 8.81575 21.6833 8.62525C21.8637 8.43474 22.1118 8.32277 22.374 8.31348C22.6362 8.30419 22.8916 8.39833 23.085 8.57559L23.2 8.68459C24.842 10.2385 23.742 12.9994 21.481 12.9994H20.914C20.677 14.3593 19.958 15.4553 19 16.4132V19.999C19 20.2642 18.8946 20.5186 18.7071 20.7061C18.5196 20.8936 18.2652 20.999 18 20.999H15C14.79 20.999 14.5854 20.933 14.415 20.8102C14.2447 20.6875 14.1173 20.5142 14.051 20.315L13.684 19.2131C13.5662 18.8596 13.3402 18.5522 13.038 18.3343C12.7357 18.1164 12.3726 17.9992 12 17.9992C11.6274 17.9992 11.2643 18.1164 10.962 18.3343C10.6598 18.5522 10.4338 18.8596 10.316 19.2131L9.949 20.315C9.88265 20.5142 9.75528 20.6875 9.58495 20.8102C9.41462 20.933 9.20996 20.999 9 20.999H6C5.73478 20.999 5.48043 20.8936 5.29289 20.7061C5.10536 20.5186 5 20.2642 5 19.999V16.9992C5 16.4712 4.603 15.7892 3.724 15.1413C2.876 14.5153 1.792 14.0893 0.894 13.9933C0.64859 13.9672 0.421522 13.8512 0.256483 13.6677C0.091443 13.4842 9.03628e-05 13.2462 0 12.9994V8.99957C9.91486e-05 8.81392 0.0518831 8.63196 0.149552 8.47407C0.247222 8.31618 0.386919 8.1886 0.553 8.10561L2.17 7.29665C2.828 5.46674 4.483 4.43079 6 4.10981V0.999957C6.00019 0.768735 6.0805 0.544723 6.22727 0.366051C6.37405 0.18738 6.57821 0.0650925 6.805 0.0200043L7.125 0.0220043C7.417 0.0220043 7.71 0.0240041 8 0.0560025C10.031 0.282992 12.085 2.05191 12.778 3.93581V3.93681ZM8 4.99976V2.0799C9.231 2.42389 10.882 3.61583 11 5.02376C11.0049 5.1612 11.0377 5.29619 11.0966 5.42047C11.1555 5.54475 11.2391 5.6557 11.3424 5.74652C11.4457 5.83733 11.5664 5.9061 11.6972 5.94861C11.828 5.99111 11.9661 6.00646 12.103 5.99372L12.383 5.96572C15.91 5.60173 19 8.4296 19 11.9994C19 13.0144 18.597 13.9893 17.879 14.7063C17.8138 14.7708 17.7474 14.8341 17.68 14.8963C17.352 15.2013 17 15.5303 17 15.9992V18.9991H15.72L15.581 18.5801C15.3303 17.8287 14.8496 17.1752 14.2069 16.7121C13.5642 16.249 12.7922 15.9998 12 15.9998C11.2078 15.9998 10.4358 16.249 9.79308 16.7121C9.15039 17.1752 8.66968 17.8287 8.419 18.5801L8.279 18.9991H7V16.9992C7 15.5273 5.987 14.3253 4.911 13.5314C4.03735 12.8932 3.04905 12.4291 2 12.1644V9.61754L3.447 8.89358C3.57605 8.82906 3.68961 8.73739 3.77989 8.62485C3.87016 8.51231 3.93502 8.38157 3.97 8.24161C4.33 6.80568 5.826 5.99972 7 5.99972C7.26522 5.99972 7.51957 5.89436 7.70711 5.70684C7.89464 5.51931 8 5.26497 8 4.99976ZM7.5 10.9995C7.89782 10.9995 8.27936 10.8414 8.56066 10.5602C8.84196 10.2789 9 9.89735 9 9.49955C9 9.10174 8.84196 8.72023 8.56066 8.43894C8.27936 8.15765 7.89782 7.99962 7.5 7.99962C7.10218 7.99962 6.72064 8.15765 6.43934 8.43894C6.15804 8.72023 6 9.10174 6 9.49955C6 9.89735 6.15804 10.2789 6.43934 10.5602C6.72064 10.8414 7.10218 10.9995 7.5 10.9995Z" fill="#C9A0DC"/>
</svg>
